<?xml version="1.0" encoding="UTF-8" standalone="no"?>
<!-- Created with Inkscape (http://www.inkscape.org/) -->

<svg
   width="772"
   height="250"
   viewBox="0 0 772 250"
   version="1.1"
   id="svg1"
   xml:space="preserve"
   inkscape:version="1.3.2 (091e20ef0f, 2023-11-25, custom)"
   sodipodi:docname="banner.svg"
   inkscape:export-filename="icon-128x128.png"
   inkscape:export-xdpi="48"
   inkscape:export-ydpi="48"
   xmlns:inkscape="http://www.inkscape.org/namespaces/inkscape"
   xmlns:sodipodi="http://sodipodi.sourceforge.net/DTD/sodipodi-0.dtd"
   xmlns="http://www.w3.org/2000/svg"
   xmlns:svg="http://www.w3.org/2000/svg"><sodipodi:namedview
     id="namedview1"
     pagecolor="#ffffff"
     bordercolor="#000000"
     borderopacity="0.25"
     inkscape:showpageshadow="2"
     inkscape:pageopacity="0.0"
     inkscape:pagecheckerboard="0"
     inkscape:deskcolor="#d1d1d1"
     inkscape:document-units="px"
     inkscape:zoom="1.6210103"
     inkscape:cx="299.81302"
     inkscape:cy="208.82038"
     inkscape:window-width="1918"
     inkscape:window-height="1177"
     inkscape:window-x="0"
     inkscape:window-y="0"
     inkscape:window-maximized="1"
     inkscape:current-layer="layer1" /><defs
     id="defs1"><style
       id="style1">.cls-1{fill:#3b1c4a;}</style><style
       id="style1-7">.cls-1{fill:#f8f8f8;}</style></defs><g
     inkscape:label="Layer 1"
     inkscape:groupmode="layer"
     id="layer1"><rect
       style="fill:#3b1c4a;stroke-width:8.437;fill-opacity:1"
       id="rect1"
       width="772"
       height="250"
       x="0"
       y="0" /><g
       id="g2"
       transform="translate(3.011028)"><g
         id="g1"
         transform="matrix(2.1341332,0,0,2.1341332,58.546544,51.372405)"><path
           class="cls-1"
           d="m 45.94,31.18 1.72,12.27 4.59,-0.65 -1.44,-10.24 c 0.57,-0.3 1.39,-0.41 2.3,-0.11 l 0.34,-3.28 c -0.46,0.03 -0.91,0.07 -1.34,0.13 -2.97,0.39 -4.94,1.03 -6.17,1.88 z"
           id="path1" /><path
           class="cls-1"
           d="m 85.33,20.99 -4.43,1.79 0.37,2.66 -1.36,0.19 0.42,2.99 1.36,-0.19 0.87,6.22 c 0.31,2.24 1.89,3.83 4.83,3.42 1.06,-0.15 1.84,-0.54 2.14,-0.76 L 89.14,34.5 c -0.35,0.17 -0.52,0.26 -0.85,0.3 -0.69,0.1 -1.08,-0.22 -1.21,-1.19 l -0.82,-5.83 1.87,-0.26 h 0.03 c 0,0 -0.42,-3 -0.42,-3 l -1.87,0.26 -0.54,-3.81 z"
           id="path2" /><rect
           class="cls-1"
           x="90.720001"
           y="23.889999"
           width="4.6399999"
           height="13.12"
           transform="rotate(-8,93.076914,30.435609)"
           id="rect2" /><path
           class="cls-1"
           d="m 91.3,18.09 c -1.3,0.18 -2.23,1.24 -2.07,2.39 0.16,1.15 1.35,1.94 2.65,1.75 1.3,-0.19 2.26,-1.27 2.09,-2.42 -0.17,-1.15 -1.35,-1.91 -2.68,-1.72 z"
           id="path3" /><polygon
           class="cls-1"
           points="103.39,31.95 103.45,31.94 105.62,35.31 105.62,35.34 110.73,34.62 105.6,28.19 108.53,21.65 104.27,22.25 103.01,25.75 102.95,25.76 100.92,22.72 96.15,23.39 100.69,29.16 97.55,36.44 102.17,35.79 "
           id="polygon3" /><path
           class="cls-1"
           d="m 36.92,31.44 c -2.51,0.35 -4.11,1.01 -5.27,1.76 l 2.45,17.46 4.59,-0.65 -0.73,-5.23 c 0.35,0.04 1.05,0.04 1.87,-0.08 3.35,-0.47 5.38,-3.41 4.8,-7.51 -0.64,-4.56 -3.69,-6.32 -7.71,-5.76 z m 1.42,10.77 c -0.3,0.04 -0.55,0.02 -0.74,-0.02 l -1.1,-7.83 c 0.2,-0.09 0.44,-0.18 0.77,-0.23 1.66,-0.23 2.45,1.01 2.84,3.73 0.39,2.72 -0.13,4.12 -1.76,4.35 z"
           id="path4" /><path
           class="cls-1"
           d="m 60.61,28.14 c -4.08,0.57 -5.77,3.68 -5.22,7.57 0.55,3.89 3.19,6.45 7.45,5.86 2.42,-0.34 3.86,-1.01 4.94,-1.71 l -1.42,-2.67 c -0.67,0.46 -1.84,0.97 -3.38,1.18 C 61.32,38.6 60.5,38.01 60,36.66 l 7.44,-2.12 c -0.38,-4.45 -2.71,-7.01 -6.82,-6.41 z m -1.29,6.4 c -0.44,-2.25 0.11,-3.59 1.47,-3.78 1.18,-0.17 1.89,0.72 2.14,2.72 z"
           id="path5" /><path
           class="cls-1"
           d="m 122.48,16.27 c 0.33,-0.08 0.54,-0.35 0.49,-0.68 L 120.87,0.65 C 120.82,0.32 120.51,0.08 120.18,0.13 L 0.53,16.94 C 0.2,16.99 -0.04,17.3 0.01,17.63 l 2.1,14.94 c 0.05,0.33 0.32,0.54 0.66,0.52 5.21,-0.42 9.92,3.29 10.66,8.55 0.74,5.26 -2.77,10.1 -7.9,11.09 -0.33,0.08 -0.54,0.35 -0.49,0.68 l 2.1,14.94 c 0.05,0.33 0.36,0.57 0.69,0.52 L 127.48,52.05 c 0.33,-0.05 0.57,-0.36 0.52,-0.69 l -2.1,-14.94 c -0.05,-0.33 -0.32,-0.54 -0.66,-0.52 -5.21,0.42 -9.92,-3.26 -10.66,-8.52 -0.74,-5.26 2.77,-10.13 7.9,-11.12 z m -9.71,11.38 c 0.81,5.77 5.72,10.04 11.47,10.13 l 1.78,12.64 -47.53,6.68 -0.33,-2.34 c -0.07,-0.48 -0.52,-0.82 -1,-0.75 -0.48,0.07 -0.82,0.5 -0.75,1 L 76.74,57.35 8.79,66.9 7.01,54.26 C 12.51,52.62 16.06,47.2 15.25,41.39 14.44,35.58 9.52,31.32 3.78,31.23 L 2,18.59 69.95,9.04 l 0.33,2.34 c 0.07,0.48 0.52,0.82 1,0.75 0.48,-0.07 0.82,-0.52 0.75,-1 l -0.33,-2.34 47.53,-6.68 1.78,12.64 c -5.5,1.64 -9.05,7.09 -8.23,12.9 z"
           id="path6" /><path
           class="cls-1"
           d="m 75.82,44.49 c -0.48,0.07 -0.82,0.52 -0.75,1 l 0.59,4.23 c 0.07,0.48 0.52,0.82 1,0.75 0.48,-0.07 0.82,-0.52 0.75,-1 l -0.59,-4.23 c -0.07,-0.47 -0.53,-0.82 -1,-0.75 z"
           id="path7" /><path
           class="cls-1"
           d="m 74.46,34.86 c -0.5,0.07 -0.82,0.5 -0.75,1 l 0.59,4.23 c 0.07,0.47 0.53,0.82 1,0.75 0.47,-0.07 0.82,-0.53 0.75,-1 l -0.59,-4.23 c -0.07,-0.48 -0.52,-0.82 -1,-0.75 z"
           id="path8" /><path
           class="cls-1"
           d="m 73.11,25.23 c -0.48,0.07 -0.82,0.52 -0.75,1 l 0.59,4.23 c 0.07,0.48 0.52,0.82 1,0.75 0.48,-0.07 0.82,-0.52 0.75,-1 l -0.59,-4.23 c -0.07,-0.47 -0.53,-0.82 -1,-0.75 z"
           id="path9" /><path
           class="cls-1"
           d="m 71.76,15.6 c -0.5,0.07 -0.82,0.5 -0.75,1 l 0.59,4.23 c 0.07,0.47 0.53,0.82 1,0.75 0.47,-0.07 0.82,-0.53 0.75,-1 l -0.59,-4.23 c -0.07,-0.48 -0.52,-0.82 -1,-0.75 z"
           id="path10" /></g><text
         xml:space="preserve"
         style="font-size:42.9314px;fill:#3b1c4a;fill-opacity:1;stroke-width:3.57762"
         x="375.99399"
         y="135.36794"
         id="text1"><tspan
           sodipodi:role="line"
           id="tspan1"
           x="375.99399"
           y="135.36794"
           style="font-style:normal;font-variant:normal;font-weight:normal;font-stretch:normal;font-family:'Titillium Web';-inkscape-font-specification:'Titillium Web';fill:#f9f9f9;stroke-width:3.57762">Embedded Widget</tspan></text></g></g></svg>
