<?xml version="1.0" encoding="UTF-8" standalone="no"?>
<!-- Created with Inkscape (http://www.inkscape.org/) -->

<svg
   width="256"
   height="256"
   viewBox="0 0 256 256"
   version="1.1"
   id="svg1"
   xml:space="preserve"
   inkscape:version="1.3.2 (091e20ef0f, 2023-11-25, custom)"
   sodipodi:docname="icon-256x256.svg"
   xmlns:inkscape="http://www.inkscape.org/namespaces/inkscape"
   xmlns:sodipodi="http://sodipodi.sourceforge.net/DTD/sodipodi-0.dtd"
   xmlns="http://www.w3.org/2000/svg"
   xmlns:svg="http://www.w3.org/2000/svg"><sodipodi:namedview
     id="namedview1"
     pagecolor="#ffffff"
     bordercolor="#000000"
     borderopacity="0.25"
     inkscape:showpageshadow="2"
     inkscape:pageopacity="0.0"
     inkscape:pagecheckerboard="0"
     inkscape:deskcolor="#d1d1d1"
     inkscape:document-units="px"
     inkscape:zoom="1.6210103"
     inkscape:cx="189.69651"
     inkscape:cy="224.85976"
     inkscape:window-width="1918"
     inkscape:window-height="1177"
     inkscape:window-x="0"
     inkscape:window-y="0"
     inkscape:window-maximized="1"
     inkscape:current-layer="layer1" /><defs
     id="defs1"><style
       id="style1">.cls-1{fill:#3b1c4a;}</style></defs><g
     inkscape:label="Layer 1"
     inkscape:groupmode="layer"
     id="layer1"><g
       id="g1"
       transform="matrix(1.8438154,0,0,1.8438154,10.005032,10.005032)"><path
         class="cls-1"
         d="m 50.67,56.95 c -0.72,0.1 -1.22,0.3 -1.66,0.5 l 2.38,16.91 c 0.41,0.08 0.95,0.13 1.6,0.04 3.52,-0.5 4.61,-3.64 3.81,-9.39 -0.83,-5.87 -2.53,-8.56 -6.12,-8.06 z"
         id="path1" /><path
         class="cls-1"
         d="m 116.04,35.05 c 0.71,-0.17 1.16,-0.76 1.06,-1.48 L 112.54,1.13 c -0.1,-0.72 -0.77,-1.22 -1.49,-1.12 l -37.5,5.27 0.73,5.22 c 0.16,1.12 -0.62,2.15 -1.74,2.31 -1.12,0.16 -2.15,-0.62 -2.31,-1.74 L 69.5,5.85 1.13,15.46 c -0.72,0.1 -1.22,0.77 -1.12,1.49 l 4.56,32.44 c 0.1,0.72 0.7,1.17 1.42,1.13 11.25,-0.92 21.43,7.1 23.03,18.46 1.6,11.36 -5.99,21.81 -17.07,23.96 -0.71,0.17 -1.16,0.76 -1.06,1.48 l 4.56,32.44 c 0.1,0.72 0.77,1.22 1.49,1.12 l 68.37,-9.61 -0.73,-5.22 c -0.16,-1.15 0.59,-2.15 1.74,-2.31 1.15,-0.16 2.15,0.62 2.31,1.74 l 0.73,5.22 37.5,-5.27 c 0.72,-0.1 1.22,-0.77 1.12,-1.49 L 123.42,78.6 c -0.1,-0.72 -0.7,-1.17 -1.42,-1.13 -11.25,0.92 -21.42,-7.04 -23.02,-18.4 -1.6,-11.36 5.98,-21.87 17.06,-24.03 z M 56.2,79.8 c -1.76,0.25 -3.29,0.26 -4.04,0.17 l 1.59,11.29 -9.92,1.39 -5.3,-37.73 c 2.5,-1.62 5.96,-3.03 11.38,-3.8 8.68,-1.22 15.27,2.58 16.66,12.44 1.25,8.88 -3.12,15.21 -10.36,16.23 z m 30.73,20.71 c 0.16,1.12 -0.62,2.15 -1.74,2.31 -1.12,0.16 -2.15,-0.62 -2.31,-1.74 L 81.41,90.64 c -0.16,-1.12 0.62,-2.15 1.74,-2.31 1.12,-0.16 2.16,0.66 2.31,1.74 z M 83.76,77.93 c 0.15,1.08 -0.66,2.16 -1.74,2.31 -1.08,0.15 -2.16,-0.66 -2.31,-1.74 L 78.24,68.06 c -0.16,-1.15 0.59,-2.15 1.74,-2.31 1.12,-0.16 2.15,0.62 2.31,1.74 z M 80.6,55.48 c 0.16,1.12 -0.62,2.15 -1.74,2.31 -1.12,0.16 -2.15,-0.62 -2.31,-1.74 L 75.08,45.61 c -0.16,-1.12 0.62,-2.15 1.74,-2.31 1.12,-0.16 2.16,0.66 2.31,1.74 z M 77.43,32.9 c 0.15,1.08 -0.66,2.16 -1.74,2.31 -1.08,0.15 -2.16,-0.66 -2.31,-1.74 L 71.91,23.03 c -0.16,-1.15 0.59,-2.15 1.74,-2.31 1.15,-0.16 2.15,0.62 2.31,1.74 z"
         id="path2" /></g></g></svg>
